<?xml version="1.0" encoding="utf-8"?>
<!-- Generator: Adobe Illustrator 20.1.0, SVG Export Plug-In . SVG Version: 6.00 Build 0)  -->
<svg version="1.1" id="Layer_1" xmlns="http://www.w3.org/2000/svg" xmlns:xlink="http://www.w3.org/1999/xlink" x="0px" y="0px"
	 viewBox="0 0 500 500" style="enable-background:new 0 0 500 500;" xml:space="preserve">
<style type="text/css">
	.st0{fill:#010101;}
</style>
<path class="st0" d="M364.1,175.3H393v47.3l81-83.2L393,58v54h-28.9c-82.7,0-129.4,61.9-170.6,116.5c-37,49.1-69,95.4-120.6,95.4H26
	v63.3h46.9c82.7,0,129.4-65.8,170.6-120.4C280.5,217.7,312.4,175.3,364.1,175.3z M147.2,211.5c3.5-4.6,7.1-9.3,10.7-14.1
	c8.8-11.6,18-23.9,28-36.1c-29.6-27.9-65.3-48.5-113-48.5H26v63.3c0,0,13.3-0.6,46.9,0C105.4,176.8,125.8,190.2,147.2,211.5z
	 M393,324.4h-28.9c-31.5,0-55.7-15.8-78.2-39.3c-2.2,3-4.5,6-6.8,9c-9.9,13.1-20.5,27.2-32.2,41.1c30.4,29.9,67.2,52.5,117.2,52.5
	H393V442l81-81.4l-81-83.2V324.4z"/>
</svg>
